<?xml version="1.0" standalone="no"?>
<!DOCTYPE svg PUBLIC "-//W3C//DTD SVG 20010904//EN"
 "http://www.w3.org/TR/2001/REC-SVG-20010904/DTD/svg10.dtd">
<svg version="1.0" xmlns="http://www.w3.org/2000/svg"
 width="2478.000000pt" height="714.000000pt" viewBox="0 0 2478.000000 714.000000"
 preserveAspectRatio="xMidYMid meet">

<g transform="translate(0.000000,714.000000) scale(0.100000,-0.100000)"
fill="#000000" stroke="none">
<path d="M3675 5309 c-399 -42 -760 -211 -1054 -494 -279 -270 -457 -603 -527
-990 -26 -140 -26 -460 0 -600 70 -387 248 -721 528 -990 145 -141 268 -227
443 -314 273 -135 493 -186 805 -185 306 1 518 51 785 184 509 254 844 690
966 1260 18 85 23 139 23 280 1 172 1 176 -27 232 -65 132 -187 219 -337 238
-41 5 -290 10 -552 10 l-478 0 0 210 0 210 601 2 600 3 -56 90 c-195 312 -438
531 -759 686 -302 145 -629 203 -961 168z m-365 -1512 c0 -552 0 -563 21 -602
31 -59 85 -111 143 -137 50 -22 59 -23 419 -26 l367 -3 0 331 0 330 225 0 225
0 0 -546 0 -545 -612 4 c-693 4 -666 1 -838 85 -167 81 -304 236 -366 413
l-29 84 -3 588 -3 587 226 0 225 0 0 -563z"/>
<path d="M6473 4013 c3 -930 3 -960 23 -1028 68 -233 161 -392 324 -555 154
-153 356 -262 600 -323 83 -20 107 -21 1088 -24 l1002 -4 0 891 0 890 -365 0
-365 0 0 -545 0 -545 -557 0 c-339 0 -584 4 -623 11 -189 30 -350 170 -396
344 -11 40 -14 230 -14 948 l0 897 -360 0 -361 0 4 -957z"/>
<path d="M8780 4625 l0 -345 923 0 c583 0 946 -4 987 -10 196 -32 366 -188
400 -369 6 -33 10 -388 10 -937 l0 -884 360 0 360 0 0 913 c0 560 -4 936 -10
974 -15 91 -56 226 -95 310 -51 111 -118 206 -224 316 -196 204 -453 331 -741
367 -53 6 -436 10 -1027 10 l-943 0 0 -345z"/>
<path d="M12470 3525 l0 -1445 360 0 360 0 0 1445 0 1445 -360 0 -360 0 0
-1445z"/>
<path d="M13820 4625 l0 -345 583 -2 582 -3 3 -1097 2 -1098 360 0 360 0 0
1100 0 1100 585 0 585 0 0 345 0 345 -1530 0 -1530 0 0 -345z"/>
<path d="M18496 4959 c-171 -19 -337 -69 -501 -150 -465 -228 -771 -667 -814
-1166 -39 -440 135 -867 479 -1180 220 -199 546 -341 859 -373 62 -6 423 -10
902 -10 l799 0 0 345 0 344 -822 3 -823 3 -88 28 c-163 51 -292 129 -393 241
-76 82 -119 154 -157 263 -29 81 -31 98 -31 218 0 120 2 137 31 218 38 109 81
181 157 264 111 122 229 192 411 246 68 20 94 21 893 24 l822 4 0 344 0 345
-827 -1 c-456 -1 -859 -5 -897 -10z"/>
<path d="M20900 4068 c0 -533 4 -947 10 -1010 23 -244 116 -449 285 -627 171
-182 379 -290 639 -336 69 -12 172 -15 477 -15 l389 0 0 345 0 345 -353 0
c-212 0 -377 4 -412 11 -119 22 -223 98 -272 198 l-28 56 -3 968 -2 967 -365
0 -365 0 0 -902z"/>
<path d="M18578 3855 c-100 -27 -198 -109 -240 -200 -32 -71 -32 -189 1 -263
31 -69 121 -153 198 -184 l58 -23 813 -3 812 -3 0 346 0 345 -797 -1 c-622 -1
-808 -4 -845 -14z"/>
</g>
</svg>
